# AST/ASF file generated using VICON BodyLanguage
# -----------------------------------------------
:version 1.10
:name VICON
:units
  mass 1.0
  length 0.45
  angle deg
:documentation
   .ast/.asf automatically generated from VICON data using
   VICON BodyBuilder and BodyLanguage model FoxedUp or BRILLIANT.MOD
:root
   order TX TY TZ RX RY RZ
   axis XYZ
   position 0 0 0  
   orientation 0 0 0 
:bonedata
  begin
     id 1 
     name lhipjoint
     direction 0.537252 -0.787203 0.302774 
     length 2.29576 
     axis 0 0 0  XYZ
  end
  begin
     id 2 
     name lfemur
     direction 0.34202 -0.939693 0  
     length 7.31114  
     axis 0 0 20  XYZ
    dof rx ry rz
    limits (-160.0 20.0)
           (-70.0 70.0)
           (-60.0 70.0)
  end
  begin
     id 3 
     name ltibia
     direction 0.34202 -0.939693 0   
     length 8.36008   
     axis 0 0 20   XYZ
    dof rx
    limits (-10.0 170.0)
  end
  begin
     id 4 
     name lfoot
     direction 0.0969116 -0.266263 0.959016   
     length 2.16704   
     axis -90 7.62852e-016 20   XYZ
    dof rx rz
    limits (-45.0 90.0)
           (-70.0 20.0)
  end
  begin
     id 5 
     name ltoes
     direction 1.53563e-011 -4.21779e-011 1   
     length 1.08338   
     axis -90 7.62852e-016 20   XYZ
    dof rx
    limits (-90.0 20.0)
  end
  begin
     id 6 
     name rhipjoint
     direction -0.588228 -0.754791 0.290308   
     length 2.39434  
     axis 0 0 0  XYZ 
  end
  begin
     id 7 
     name rfemur
     direction -0.34202 -0.939693 0   
     length 7.45207   
     axis 0 0 -20   XYZ
    dof rx ry rz
    limits (-160.0 20.0)
           (-70.0 70.0)
           (-70.0 60.0)
  end
  begin
     id 8 
     name rtibia
     direction -0.34202 -0.939693 0   
     length 8.03565   
     axis 0 0 -20   XYZ
    dof rx
    limits (-10.0 170.0)
 end
 begin
     id 9 
     name rfoot
     direction -0.107009 -0.294004 0.949795   
     length 2.11509  
     axis -90 -7.62852e-016 -20   XYZ
    dof rx rz
    limits (-45.0 90.0)
           (-20.0 70.0)
  end
  begin
     id 10 
     name rtoes
     direction -1.53533e-011 -4.22004e-011 1   
     length 1.05493   
     axis -90 -7.62852e-016 -20   XYZ
    dof rx
    limits (-90.0 20.0)
  end
  begin
     id 11 
     name lowerback
     direction -0.0115208 0.997969 -0.0626515   
     length 2.03153   
     axis 0 0 0   XYZ
    dof rx ry rz
    limits (-20.0 45.0)
           (-30.0 30.0)
           (-30.0 30.0)
  end
  begin
     id 12 
     name upperback
     direction -0.00423475 0.999974 -0.00583614   
     length 2.03619   
     axis 0 0 0   XYZ
    dof rx ry rz
    limits (-20.0 45.0)
           (-30.0 30.0)
           (-30.0 30.0)
  end
  begin
     id 13 
     name thorax
     direction 0.00289429 0.999728 0.0231573   
     length 2.03921   
     axis 0 0 0   XYZ
    dof rx ry rz
    limits (-20.0 45.0)
           (-30.0 30.0)
           (-30.0 30.0)
  end
  begin
     id 14 
     name lowerneck
     direction 0.0188995 0.987777 0.154721   
     length 1.78836   
     axis 0 0 0   XYZ
    dof rx ry rz
    limits (-20.0 45.0)
           (-30.0 30.0)
           (-30.0 30.0)
  end
  begin
     id 15 
     name upperneck
     direction -0.00612612 0.992995 -0.118   
     length 1.81789   
     axis 0 0 0   XYZ
    dof rx ry rz
    limits (-20.0 45.0)
           (-30.0 30.0)
           (-30.0 30.0)
  end
  begin
     id 16
     name head
     direction -0.00420226 0.998397 -0.0564482  
     length 1.82234  
     axis 0 0 0   XYZ
    dof rx ry rz
    limits (-20.0 45.0)
           (-30.0 30.0)
           (-30.0 30.0)
  end
  begin
     id 17 
     name lclavicle
     direction 0.916488 0.396539 0.0529676  
     length 3.51732  
     axis 0 0 0   XYZ
    dof ry rz
    limits (-20.0 10.0)
           (0.0 20.0)
  end
  begin
     id 18 
     name lhumerus
     direction 1 -4.4896e-011 8.36962e-028   
     length 5.45077   
     axis 180 -30 -90   XYZ
    dof rx ry rz
    limits (-60.0 90.0)
           (-90.0 90.0)
           (-90.0 90.0)
  end
  begin
     id 19
     name lradius
     direction 1 -4.48962e-011 3.01407e-027   
     length 3.05488   
     axis 180 -30 -90   XYZ
    dof rx
    limits (-10.0 170.0)
  end
  begin
     id 20
     name lwrist
     direction 1 -4.49002e-011 4.72961e-027   
     length 1.52744   
     axis -2.72261e-015 90 90   XYZ
    dof ry
    limits (-180.0 0.0)
 end
  begin
     id 21 
     name lhand
     direction 1 -4.4899e-011 9.45681e-027   
     length 0.638818   
     axis -6.0311e-015 90 90   XYZ
    dof rx rz
    limits (-90.0 90.0)
           (-45.0 45.0)
  end
  begin
     id 22 
     name lfingers
     direction 1 -4.48871e-011 1.88632e-026   
     length 0.515032   
     axis -1.20625e-014 90 90   XYZ
    dof rx
    limits (0.0 90.0)
  end
  begin
     id 23
     name lthumb
     direction 0.707107 -6.34964e-011 0.707107   
     length 0.739485   
     axis -90 45 6.32835e-014   XYZ
    dof rx rz
    limits (-45.0 45.0)
           (-45.0 45.0)
  end
  begin
     id 24 
     name rclavicle
     direction -0.949427 0.303202 0.0815894   
     length 3.76167  
     axis 0 0 0   XYZ 
    dof ry rz
    limits (-10.0 20.0)
           (-20.0 0.0)
  end
  begin
     id 25 
     name rhumerus
     direction -1 -4.48971e-011 -6.43969e-018  
     length 4.88702   
     axis 180 30 90   XYZ
    dof rx ry rz
    limits (-90.0 60.0)
           (-90.0 90.0)
           (-90.0 90.0)
  end
  begin
     id 26 
     name rradius
     direction -1 -4.48987e-011 5.46662e-027   
     length 3.22603   
     axis 180 30 90   XYZ
    dof rx
    limits (-10.0 170.0)
  end
  begin
     id 27 
     name rwrist
     direction -1 -4.48956e-011 4.72476e-027   
     length 1.61302   
     axis -2.72261e-015 -90 -90   XYZ
    dof ry
    limits (-180.0 0.0)
  end
  begin
     id 28
     name rhand
     direction -1 -4.4889e-011 9.43571e-027   
     length 0.716293   
     axis -6.0311e-015 -90 -90   XYZ
    dof rx rz
    limits (-90.0 90.0)
           (-45.0 45.0)
  end
  begin
     id 29
     name rfingers
     direction -1 -4.48887e-011 1.88701e-026   
     length 0.577494   
     axis -1.20625e-014 -90 -90   XYZ
    dof rx
    limits (0.0 90.0)
  end
  begin
     id 30
     name rthumb
     direction -0.707107 -6.34825e-011 0.707107   
     length 0.829169   
     axis -90 -45 -6.32835e-014   XYZ
    dof rx rz
    limits (-45.0 45.0)
           (-45.0 45.0)
  end
:hierarchy
  begin
    root lhipjoint rhipjoint lowerback
    lhipjoint lfemur
    lfemur ltibia
    ltibia lfoot
    lfoot ltoes
    rhipjoint rfemur
    rfemur rtibia
    rtibia rfoot
    rfoot rtoes
    lowerback upperback
    upperback thorax
    thorax lowerneck lclavicle rclavicle
    lowerneck upperneck
    upperneck head
    lclavicle lhumerus
    lhumerus lradius
    lradius lwrist
    lwrist lhand lthumb
    lhand lfingers
    rclavicle rhumerus
    rhumerus rradius
    rradius rwrist
    rwrist rhand rthumb
    rhand rfingers
  end

#!OML:ASF F:\VICON\USERDATA\INSTALL\rory3\rory3.ASF
:FULLY-SPECIFIED
:DEGREES
2159
root 1.76587 18.5272 0.671061 -174.526 73.7696 -187.112
lowerback -8.87432 1.04968 0.146624
upperback -3.643 1.52584 -0.295244
thorax 1.21377 0.818221 -0.236887
lowerneck -16.4238 8.58069 9.73531
upperneck 22.1659 11.6164 -7.25057
head 10.8688 5.44578 -2.45701
rclavicle 3.71106e-014 2.38542e-015
rhumerus -4.49465 21.2812 -87.698
rradius 106.692
rwrist -9.69742
rhand -35.2267 21.4207
rfingers 7.12502
rthumb -8.36358 -8.39369
lclavicle 3.71106e-014 2.38542e-015
lhumerus -64.3334 -29.1853 102.875
lradius 80.184
lwrist 54.6714
lhand -29.2478 22.4937
lfingers 7.12502
lthumb -2.59098 52.4577
rfemur -3.44972 -20.6786 19.092
rtibia -4.77083e-015
rfoot -7.49003 5.18061
rtoes -9.02519
lfemur -17.1873 4.29381 -17.3874
ltibia 15.8537
lfoot -10.6612 -12.4004
ltoes -27.6374
2160
root 1.76537 18.5311 0.676302 -174.653 73.3967 -187.311
lowerback -8.85559 1.09667 0.0582194
upperback -3.68993 1.59924 -0.340275
thorax 1.15438 0.856543 -0.22763
lowerneck -16.4304 8.4868 9.61103
upperneck 22.1922 11.4874 -7.12822
head 10.8504 5.39142 -2.41496
rclavicle 3.63434e-014 3.57812e-015
rhumerus -3.54639 21.1207 -87.0298
rradius 108.344
rwrist -9.34081
rhand -35.2492 21.8056
rfingers 7.12502
rthumb -8.38525 -8.00791
lclavicle 3.63434e-014 3.57812e-015
lhumerus -65.6921 -29.4562 103.166
lradius 80.8991
lwrist 54.9109
lhand -29.4777 22.0673
lfingers 7.12502
lthumb -2.81301 52.0285
rfemur -3.46013 -21.0588 19.0771
rtibia 6.36111e-015
rfoot -7.59611 5.25842
rtoes -9.06715
lfemur -17.3359 4.19283 -17.4597
ltibia 15.8814
lfoot -10.5708 -12.6715
ltoes -27.3013
2161
root 1.76594 18.5289 0.679441 -174.567 73.0758 -187.195
lowerback -8.73319 1.12592 0.0497026
upperback -3.74041 1.64008 -0.319322
thorax 1.03427 0.877949 -0.201003
lowerneck -16.4165 8.41626 9.43893
upperneck 22.2561 11.4119 -7.00094
head 10.8439 5.35936 -2.35507
rclavicle 2.58824e-014 -1.11319e-014
rhumerus -2.6287 21.0497 -86.3307
rradius 109.997
rwrist -9.11081
rhand -35.1498 22.1252
rfingers 7.12502
rthumb -8.28937 -7.69215
lclavicle 2.58824e-014 -1.11319e-014
lhumerus -66.9423 -29.478 103.384
lradius 81.6012
lwrist 55.0406
lhand -29.6663 22.143
lfingers 7.12502
lthumb -2.9952 52.1017
rfemur -3.37295 -21.3782 19.1071
rtibia -1.74931e-014
rfoot -7.56618 5.32278
rtoes -8.24105
lfemur -17.3512 3.98083 -17.4023
ltibia 15.8854
lfoot -10.6083 -12.7873
ltoes -27.3854
2162
root 1.76847 18.5279 0.68349 -174.464 72.7882 -187.084
lowerback -8.64229 1.135 -0.00847629
upperback -3.79807 1.65828 -0.274259
thorax 0.921878 0.888994 -0.123361
lowerneck -16.372 8.34509 9.29697
upperneck 22.272 11.3429 -6.94078
head 10.8213 5.32616 -2.32407
rclavicle -5.18207e-014 5.56597e-015
rhumerus -1.79961 20.981 -85.7211
rradius 111.652
rwrist -9.01529
rhand -34.786 22.585
rfingers 7.12502
rthumb -7.93824 -7.24595
lclavicle -5.18207e-014 5.56597e-015
lhumerus -68.1064 -29.4177 103.549
lradius 82.2796
lwrist 55.0394
lhand -29.3098 22.307
lfingers 7.12502
lthumb -2.65092 52.2703
rfemur -3.32132 -21.6637 19.1479
rtibia 0
rfoot -7.54825 5.38795
rtoes -8.17924
lfemur -17.3694 3.84597 -17.3624
ltibia 15.8555
lfoot -10.6078 -12.899
ltoes -27.6661
2163
root 1.77084 18.526 0.687767 -174.434 72.4636 -187.087
lowerback -8.68257 1.18491 -0.0289645
upperback -3.801 1.72832 -0.319816
thorax 0.942005 0.924415 -0.151301
lowerneck -16.4146 8.24046 9.17891
upperneck 22.3196 11.1821 -6.77384
head 10.8132 5.26109 -2.27077
rclavicle -2.0655e-015 -3.97569e-015
rhumerus -0.953107 20.7345 -85.109
rradius 113.242
rwrist -8.97928
rhand -34.6249 22.7844
rfingers 7.12502
rthumb -7.78276 -7.0524
lclavicle -2.0655e-015 -3.97569e-015
lhumerus -69.114 -29.5801 103.596
lradius 82.9308
lwrist 55.0182
lhand -28.7736 22.5352
lfingers 7.12502
lthumb -2.13305 52.5043
rfemur -3.31287 -21.988 19.1858
rtibia -6.36111e-015
rfoot -7.58229 5.39747
rtoes -8.6113
lfemur -17.4965 3.80678 -17.396
ltibia 15.868
lfoot -10.5504 -13.138
ltoes -27.3342
2164
root 1.77331 18.5249 0.692142 -174.483 72.1319 -187.176
lowerback -8.79317 1.26884 -0.023983
upperback -3.7385 1.84075 -0.435424
thorax 1.07166 0.979212 -0.25858
lowerneck -16.6235 8.10515 9.14615
upperneck 22.4191 10.9469 -6.63347
head 10.8572 5.15996 -2.24666
rclavicle -3.7943e-014 -7.95139e-016
rhumerus -0.0980219 20.3938 -84.5347
rradius 114.766
rwrist -9.03217
rhand -34.5872 22.6094
rfingers 7.12502
rthumb -7.74639 -7.22869
lclavicle -3.7943e-014 -7.95139e-016
lhumerus -69.9114 -29.902 103.51
lradius 83.5955
lwrist 55.0581
lhand -28.482 22.475
lfingers 7.12502
lthumb -1.85148 52.4468
rfemur -3.29409 -22.3237 19.1875
rtibia 1.74931e-014
rfoot -7.58353 5.4669
rtoes -8.47335
lfemur -17.5948 3.69469 -17.4316
ltibia 15.8509
lfoot -10.4471 -13.3185
ltoes -26.8174
2165
root 1.77437 18.5267 0.699485 -174.403 71.8294 -187.139
lowerback -8.82956 1.31922 -0.0802673
upperback -3.73516 1.91389 -0.467266
thorax 1.09479 1.01642 -0.251757
lowerneck -16.7121 7.97358 9.07996
upperneck 22.4979 10.7499 -6.53191
head 10.8747 5.07424 -2.22899
rclavicle -4.8081e-015 1.51076e-014
rhumerus 0.594057 20.1733 -83.9731
rradius 116.201
rwrist -9.12932
rhand -34.5906 22.596
rfingers 7.12502
rthumb -7.74966 -7.24201
lclavicle -4.8081e-015 1.51076e-014
lhumerus -70.6886 -30.0523 103.456
lradius 84.2001
lwrist 55.0535
lhand -28.5994 22.285
lfingers 7.12502
lthumb -1.96481 52.2557
rfemur -3.31592 -22.6215 19.2625
rtibia 1.43125e-014
rfoot -7.63369 5.49567
rtoes -8.69351
lfemur -17.6617 3.52324 -17.396
ltibia 15.8668
lfoot -10.4917 -13.4208
ltoes -27.2729
2166
root 1.77361 18.5299 0.705666 -174.919 71.5347 -187.743
lowerback -8.84707 1.35916 -0.322069
upperback -3.75599 1.99033 -0.546255
thorax 1.07808 1.0572 -0.190096
lowerneck -16.6929 7.83921 8.97038
upperneck 22.5254 10.5725 -6.44454
head 10.853 4.99626 -2.20999
rclavicle -3.51569e-014 -3.4191e-014
rhumerus 1.13875 19.8864 -83.4839
rradius 117.521
rwrist -9.2087
rhand -34.5099 22.9069
rfingers 7.12502
rthumb -7.67176 -6.93396
lclavicle -3.51569e-014 -3.4191e-014
lhumerus -71.4459 -30.1723 103.456
lradius 84.7736
lwrist 54.896
lhand -29.3555 22.1915
lfingers 7.12502
lthumb -2.69508 52.1542
rfemur -3.36569 -22.9355 19.1097
rtibia -2.54444e-014
rfoot -7.62877 5.45055
rtoes -9.09581
lfemur -17.7084 3.16343 -17.5547
ltibia 15.9122
lfoot -10.5364 -13.341
ltoes -27.1123
2167
root 1.77199 18.5318 0.706688 -174.897 71.2497 -187.776
lowerback -8.88594 1.43145 -0.34718
upperback -3.74793 2.09001 -0.572324
thorax 1.10802 1.10732 -0.191982
lowerneck -16.701 7.71601 8.89337
upperneck 22.4682 10.4136 -6.45067
head 10.8151 4.91697 -2.22596
rclavicle -6.9146e-014 -5.56597e-015
rhumerus 1.60464 19.5641 -82.9336
rradius 118.833
rwrist -9.26163
rhand -34.4686 22.8677
rfingers 7.12502
rthumb -7.63192 -6.97456
lclavicle -6.9146e-014 -5.56597e-015
lhumerus -72.0363 -30.333 103.445
lradius 85.3244
lwrist 54.7431
lhand -29.7927 22.254
lfingers 7.12502
lthumb -3.11726 52.2109
rfemur -3.39915 -23.2244 19.1253
rtibia 7.95139e-015
rfoot -7.64106 5.45479
rtoes -9.11254
lfemur -17.8094 2.9131 -17.5568
ltibia 15.9641
lfoot -10.5117 -13.3718
ltoes -26.8769
2168
root 1.76963 18.5328 0.708471 -174.701 70.9057 -187.588
lowerback -8.89751 1.51745 -0.231299
upperback -3.71435 2.19607 -0.661918
thorax 1.15698 1.15838 -0.337818
lowerneck -16.8705 7.5844 8.92994
upperneck 22.5449 10.1939 -6.40858
head 10.8561 4.81959 -2.24699
rclavicle 2.81591e-014 1.98785e-015
rhumerus 1.99283 19.1703 -82.5439
rradius 120.043
rwrist -9.16987
rhand -34.4181 22.6878
rfingers 7.12502
rthumb -7.5831 -7.15622
lclavicle 2.81591e-014 1.98785e-015
lhumerus -72.556 -30.6517 103.328
lradius 85.8157
lwrist 54.6211
lhand -29.6243 22.1403
lfingers 7.12502
lthumb -2.9546 52.0996
rfemur -3.37881 -23.5633 19.2132
rtibia 3.18055e-015
rfoot -7.66166 5.46144
rtoes -9.12546
lfemur -17.8713 2.89904 -17.5304
ltibia 15.8983
lfoot -10.4288 -13.6802
ltoes -27.0487
